<?xml version="1.0" standalone="no"?>
<!DOCTYPE svg PUBLIC "-//W3C//DTD SVG 20010904//EN"
 "http://www.w3.org/TR/2001/REC-SVG-20010904/DTD/svg10.dtd">
<svg version="1.0" xmlns="http://www.w3.org/2000/svg"
 width="300.000000pt" height="300.000000pt" viewBox="0 0 300.000000 300.000000"
 preserveAspectRatio="xMidYMid meet">
<metadata>
Created by potrace 1.10, written by Peter Selinger 2001-2011
</metadata>
<g transform="translate(0.000000,300.000000) scale(0.100000,-0.100000)"
fill="#000000" stroke="none">
<path d="M1302 2576 c-342 -66 -590 -242 -767 -544 -107 -183 -156 -462 -122
-687 53 -340 228 -604 523 -782 178 -108 347 -154 569 -154 228 1 396 47 574
159 427 269 615 765 475 1251 -48 165 -138 316 -267 448 -133 137 -313 240
-504 289 -123 32 -365 42 -481 20z m286 -26 c168 -18 277 -48 403 -111 113
-56 164 -94 260 -189 161 -159 262 -353 300 -574 17 -102 7 -341 -20 -441
-107 -407 -450 -719 -856 -780 -548 -81 -1056 243 -1201 767 -34 124 -43 332
-20 463 40 229 142 422 307 580 190 181 407 271 712 294 10 0 61 -4 115 -9z"/>
<path d="M888 1890 c-35 -19 -68 -56 -81 -92 -7 -19 -54 -276 -83 -451 l-18
-107 21 -21 c18 -18 32 -21 104 -20 66 1 87 5 102 19 12 12 26 61 42 151 13
74 26 135 28 137 10 11 40 -17 152 -138 147 -159 178 -182 237 -175 24 4 180
7 348 9 l305 3 54 30 c94 52 141 133 141 244 0 85 -44 139 -134 163 -25 7 -46
15 -46 18 0 10 102 95 174 145 72 51 79 70 36 92 -19 10 -100 13 -355 11 -322
-3 -331 -4 -382 -27 -113 -50 -182 -166 -169 -283 l6 -59 -58 50 c-31 27 -86
83 -122 123 -163 183 -182 198 -237 198 -15 -1 -45 -10 -65 -20z m191 -112
c47 -51 133 -141 193 -199 l108 -106 79 -7 79 -7 -8 -32 c-27 -104 -34 -124
-51 -148 -25 -35 -83 -62 -117 -54 -25 5 -233 213 -344 344 l-37 43 -6 -33
c-3 -19 -18 -104 -33 -189 l-27 -155 -87 -3 c-49 -1 -88 1 -88 5 1 49 103 560
115 579 9 14 30 34 48 45 55 34 81 21 176 -83z m1211 93 c0 -5 -12 -12 -26
-15 -39 -10 -123 -68 -169 -115 l-40 -42 -222 2 c-238 2 -253 0 -253 -48 0
-13 6 -26 13 -28 7 -3 122 -6 257 -8 274 -2 303 -8 340 -69 55 -91 -11 -244
-129 -297 -30 -13 -86 -16 -316 -19 -265 -3 -279 -2 -256 14 26 19 60 87 61
122 l0 22 210 0 c211 0 211 0 235 25 26 25 30 41 17 62 -5 8 -81 13 -268 15
-230 3 -263 5 -287 21 -36 23 -67 74 -67 109 0 48 38 132 77 170 78 74 69 72
458 78 193 3 353 7 358 8 4 1 7 -2 7 -7z m-335 -431 c-4 -6 -78 -10 -191 -10
-116 0 -184 4 -184 10 0 6 70 10 191 10 124 0 188 -3 184 -10z"/>
</g>
</svg>
